<mxfile host="Electron" agent="Mozilla/5.0 (Windows NT 10.0; Win64; x64) AppleWebKit/537.36 (KHTML, like Gecko) draw.io/26.0.9 Chrome/128.0.6613.186 Electron/32.2.5 Safari/537.36" version="26.0.9">
  <diagram name="Page-1" id="lWrQ4EAAfbNxaAfVOQoC">
    <mxGraphModel dx="1808" dy="607" grid="0" gridSize="10" guides="1" tooltips="1" connect="1" arrows="1" fold="1" page="0" pageScale="1" pageWidth="850" pageHeight="1100" background="none" math="0" shadow="0">
      <root>
        <mxCell id="0" />
        <mxCell id="1" parent="0" />
        <mxCell id="wmvCU-1xR5RZZGSGPx9H-8" value="" style="rounded=0;whiteSpace=wrap;html=1;fontStyle=1;fontSize=15;" vertex="1" parent="1">
          <mxGeometry x="-370" y="550" width="120" height="60" as="geometry" />
        </mxCell>
        <mxCell id="wmvCU-1xR5RZZGSGPx9H-18" value="" style="group;fontStyle=1;fontSize=15;" vertex="1" connectable="0" parent="1">
          <mxGeometry x="-235" y="419" width="120" height="60" as="geometry" />
        </mxCell>
        <mxCell id="wmvCU-1xR5RZZGSGPx9H-9" value="" style="rounded=0;whiteSpace=wrap;html=1;fontStyle=1;fontSize=15;" vertex="1" parent="wmvCU-1xR5RZZGSGPx9H-18">
          <mxGeometry width="120" height="60" as="geometry" />
        </mxCell>
        <mxCell id="wmvCU-1xR5RZZGSGPx9H-15" value="fpnew opgroup multi_fmt slic" style="text;html=1;align=center;verticalAlign=middle;whiteSpace=wrap;rounded=0;fontStyle=1;fontSize=15;" vertex="1" parent="wmvCU-1xR5RZZGSGPx9H-18">
          <mxGeometry x="10" y="15" width="100" height="30" as="geometry" />
        </mxCell>
        <mxCell id="wmvCU-1xR5RZZGSGPx9H-19" value="" style="group;fontStyle=1;fontSize=15;" vertex="1" connectable="0" parent="1">
          <mxGeometry x="-668" y="554" width="120" height="60" as="geometry" />
        </mxCell>
        <mxCell id="wmvCU-1xR5RZZGSGPx9H-10" value="" style="rounded=0;whiteSpace=wrap;html=1;fontStyle=1;fontSize=15;" vertex="1" parent="wmvCU-1xR5RZZGSGPx9H-19">
          <mxGeometry width="120" height="60" as="geometry" />
        </mxCell>
        <mxCell id="wmvCU-1xR5RZZGSGPx9H-16" value="fpnew non-comp" style="text;html=1;align=center;verticalAlign=middle;whiteSpace=wrap;rounded=0;fontStyle=1;fontSize=15;" vertex="1" parent="wmvCU-1xR5RZZGSGPx9H-19">
          <mxGeometry x="10" y="15" width="100" height="30" as="geometry" />
        </mxCell>
        <mxCell id="wmvCU-1xR5RZZGSGPx9H-20" value="" style="group;fontStyle=1;fontSize=15;" vertex="1" connectable="0" parent="1">
          <mxGeometry x="-608" y="426" width="120" height="60" as="geometry" />
        </mxCell>
        <mxCell id="wmvCU-1xR5RZZGSGPx9H-6" value="" style="rounded=0;whiteSpace=wrap;html=1;fontStyle=1;fontSize=15;" vertex="1" parent="wmvCU-1xR5RZZGSGPx9H-20">
          <mxGeometry width="120" height="60" as="geometry" />
        </mxCell>
        <mxCell id="wmvCU-1xR5RZZGSGPx9H-14" value="fpnew opgroup fmt slic" style="text;html=1;align=center;verticalAlign=middle;whiteSpace=wrap;rounded=0;fontStyle=1;fontSize=15;" vertex="1" parent="wmvCU-1xR5RZZGSGPx9H-20">
          <mxGeometry x="10" y="15" width="100" height="30" as="geometry" />
        </mxCell>
        <mxCell id="wmvCU-1xR5RZZGSGPx9H-21" value="" style="group;fontStyle=1;fontSize=15;" vertex="1" connectable="0" parent="1">
          <mxGeometry x="-513" y="550" width="120" height="60" as="geometry" />
        </mxCell>
        <mxCell id="wmvCU-1xR5RZZGSGPx9H-7" value="" style="rounded=0;whiteSpace=wrap;html=1;fontStyle=1;fontSize=15;" vertex="1" parent="wmvCU-1xR5RZZGSGPx9H-21">
          <mxGeometry width="120" height="60" as="geometry" />
        </mxCell>
        <mxCell id="wmvCU-1xR5RZZGSGPx9H-17" value="fpnew fma" style="text;html=1;align=center;verticalAlign=middle;whiteSpace=wrap;rounded=0;fontStyle=1;fontSize=15;" vertex="1" parent="wmvCU-1xR5RZZGSGPx9H-21">
          <mxGeometry x="10" y="15" width="100" height="30" as="geometry" />
        </mxCell>
        <mxCell id="wmvCU-1xR5RZZGSGPx9H-23" value="fpnew cast multi" style="text;html=1;align=center;verticalAlign=middle;whiteSpace=wrap;rounded=0;fontStyle=1;fontSize=15;" vertex="1" parent="1">
          <mxGeometry x="-360" y="570" width="100" height="30" as="geometry" />
        </mxCell>
        <mxCell id="wmvCU-1xR5RZZGSGPx9H-26" value="" style="endArrow=classic;html=1;rounded=0;exitX=0.5;exitY=1;exitDx=0;exitDy=0;entryX=0.5;entryY=0;entryDx=0;entryDy=0;fontStyle=1;fontSize=15;" edge="1" parent="1" source="wmvCU-1xR5RZZGSGPx9H-3" target="wmvCU-1xR5RZZGSGPx9H-5">
          <mxGeometry width="50" height="50" relative="1" as="geometry">
            <mxPoint x="-420" y="479" as="sourcePoint" />
            <mxPoint x="-370" y="429" as="targetPoint" />
          </mxGeometry>
        </mxCell>
        <mxCell id="wmvCU-1xR5RZZGSGPx9H-27" value="" style="endArrow=classic;html=1;rounded=0;exitX=0.5;exitY=1;exitDx=0;exitDy=0;entryX=0.5;entryY=0;entryDx=0;entryDy=0;fontStyle=1;fontSize=15;" edge="1" parent="1" source="wmvCU-1xR5RZZGSGPx9H-5" target="wmvCU-1xR5RZZGSGPx9H-6">
          <mxGeometry width="50" height="50" relative="1" as="geometry">
            <mxPoint x="-420" y="479" as="sourcePoint" />
            <mxPoint x="-370" y="429" as="targetPoint" />
            <Array as="points">
              <mxPoint x="-359" y="362" />
              <mxPoint x="-548" y="362" />
            </Array>
          </mxGeometry>
        </mxCell>
        <mxCell id="wmvCU-1xR5RZZGSGPx9H-28" value="" style="endArrow=classic;html=1;rounded=0;entryX=0.5;entryY=0;entryDx=0;entryDy=0;fontStyle=1;fontSize=15;" edge="1" parent="1" target="wmvCU-1xR5RZZGSGPx9H-9">
          <mxGeometry width="50" height="50" relative="1" as="geometry">
            <mxPoint x="-447" y="361" as="sourcePoint" />
            <mxPoint x="-370" y="429" as="targetPoint" />
            <Array as="points">
              <mxPoint x="-175" y="364" />
            </Array>
          </mxGeometry>
        </mxCell>
        <mxCell id="wmvCU-1xR5RZZGSGPx9H-29" value="" style="endArrow=classic;html=1;rounded=0;exitX=0.43;exitY=0.981;exitDx=0;exitDy=0;exitPerimeter=0;entryX=0.25;entryY=0;entryDx=0;entryDy=0;fontStyle=1;fontSize=15;" edge="1" parent="1" source="wmvCU-1xR5RZZGSGPx9H-6" target="wmvCU-1xR5RZZGSGPx9H-10">
          <mxGeometry width="50" height="50" relative="1" as="geometry">
            <mxPoint x="-420" y="479" as="sourcePoint" />
            <mxPoint x="-370" y="429" as="targetPoint" />
            <Array as="points">
              <mxPoint x="-556" y="504" />
              <mxPoint x="-638" y="504" />
            </Array>
          </mxGeometry>
        </mxCell>
        <mxCell id="wmvCU-1xR5RZZGSGPx9H-30" value="" style="endArrow=classic;html=1;rounded=0;entryX=0.5;entryY=0;entryDx=0;entryDy=0;fontStyle=1;fontSize=15;" edge="1" parent="1" target="wmvCU-1xR5RZZGSGPx9H-7">
          <mxGeometry width="50" height="50" relative="1" as="geometry">
            <mxPoint x="-562" y="504" as="sourcePoint" />
            <mxPoint x="-375" y="429" as="targetPoint" />
            <Array as="points">
              <mxPoint x="-453" y="504" />
            </Array>
          </mxGeometry>
        </mxCell>
        <mxCell id="wmvCU-1xR5RZZGSGPx9H-31" value="" style="endArrow=classic;html=1;rounded=0;entryX=0.5;entryY=0;entryDx=0;entryDy=0;exitX=0.5;exitY=1;exitDx=0;exitDy=0;fontStyle=1;fontSize=15;" edge="1" parent="1" source="wmvCU-1xR5RZZGSGPx9H-9" target="wmvCU-1xR5RZZGSGPx9H-8">
          <mxGeometry width="50" height="50" relative="1" as="geometry">
            <mxPoint x="-425" y="479" as="sourcePoint" />
            <mxPoint x="-375" y="429" as="targetPoint" />
            <Array as="points">
              <mxPoint x="-175" y="502" />
              <mxPoint x="-310" y="505" />
            </Array>
          </mxGeometry>
        </mxCell>
        <mxCell id="wmvCU-1xR5RZZGSGPx9H-32" value="" style="endArrow=classic;html=1;rounded=0;entryX=0.5;entryY=0;entryDx=0;entryDy=0;fontStyle=1;fontSize=15;" edge="1" parent="1" target="wmvCU-1xR5RZZGSGPx9H-11">
          <mxGeometry width="50" height="50" relative="1" as="geometry">
            <mxPoint x="-175" y="504" as="sourcePoint" />
            <mxPoint x="-375" y="402" as="targetPoint" />
          </mxGeometry>
        </mxCell>
        <mxCell id="wmvCU-1xR5RZZGSGPx9H-33" value="" style="endArrow=classic;html=1;rounded=0;entryX=0.5;entryY=0;entryDx=0;entryDy=0;fontStyle=1;fontSize=15;" edge="1" parent="1" target="wmvCU-1xR5RZZGSGPx9H-22">
          <mxGeometry width="50" height="50" relative="1" as="geometry">
            <mxPoint x="-195" y="502" as="sourcePoint" />
            <mxPoint x="-493" y="402" as="targetPoint" />
            <Array as="points">
              <mxPoint x="-39" y="502" />
            </Array>
          </mxGeometry>
        </mxCell>
        <mxCell id="wmvCU-1xR5RZZGSGPx9H-34" value="" style="group;fontStyle=1;fontSize=15;" vertex="1" connectable="0" parent="1">
          <mxGeometry x="-235" y="548" width="120" height="60" as="geometry" />
        </mxCell>
        <mxCell id="wmvCU-1xR5RZZGSGPx9H-11" value="" style="rounded=0;whiteSpace=wrap;html=1;fontStyle=1;fontSize=15;" vertex="1" parent="wmvCU-1xR5RZZGSGPx9H-34">
          <mxGeometry width="120" height="60" as="geometry" />
        </mxCell>
        <mxCell id="wmvCU-1xR5RZZGSGPx9H-24" value="fpnew div_sqrt" style="text;html=1;align=center;verticalAlign=middle;whiteSpace=wrap;rounded=0;fontStyle=1;fontSize=15;" vertex="1" parent="wmvCU-1xR5RZZGSGPx9H-34">
          <mxGeometry x="10" y="15" width="100" height="30" as="geometry" />
        </mxCell>
        <mxCell id="wmvCU-1xR5RZZGSGPx9H-35" value="" style="group;fontStyle=1;fontSize=15;" vertex="1" connectable="0" parent="1">
          <mxGeometry x="-419" y="284" width="120" height="60" as="geometry" />
        </mxCell>
        <mxCell id="wmvCU-1xR5RZZGSGPx9H-5" value="" style="rounded=0;whiteSpace=wrap;html=1;fontStyle=1;fontSize=15;" vertex="1" parent="wmvCU-1xR5RZZGSGPx9H-35">
          <mxGeometry width="120" height="60" as="geometry" />
        </mxCell>
        <mxCell id="wmvCU-1xR5RZZGSGPx9H-13" value="fpu opgroup block" style="text;html=1;align=center;verticalAlign=middle;whiteSpace=wrap;rounded=0;fontStyle=1;fontSize=15;" vertex="1" parent="wmvCU-1xR5RZZGSGPx9H-35">
          <mxGeometry x="10" y="15" width="100" height="30" as="geometry" />
        </mxCell>
        <mxCell id="wmvCU-1xR5RZZGSGPx9H-36" value="" style="group;fontStyle=1;fontSize=15;" vertex="1" connectable="0" parent="1">
          <mxGeometry x="-418" y="185" width="120" height="60" as="geometry" />
        </mxCell>
        <mxCell id="wmvCU-1xR5RZZGSGPx9H-3" value="" style="rounded=0;whiteSpace=wrap;html=1;fontStyle=1;fontSize=15;" vertex="1" parent="wmvCU-1xR5RZZGSGPx9H-36">
          <mxGeometry width="120" height="60" as="geometry" />
        </mxCell>
        <mxCell id="wmvCU-1xR5RZZGSGPx9H-12" value="fpu top" style="text;html=1;align=center;verticalAlign=middle;whiteSpace=wrap;rounded=0;fontStyle=1;fontSize=15;" vertex="1" parent="wmvCU-1xR5RZZGSGPx9H-36">
          <mxGeometry x="30" y="15" width="60" height="30" as="geometry" />
        </mxCell>
        <mxCell id="wmvCU-1xR5RZZGSGPx9H-37" value="" style="group;fontStyle=1;fontSize=15;" vertex="1" connectable="0" parent="1">
          <mxGeometry x="-99" y="546" width="120" height="60" as="geometry" />
        </mxCell>
        <mxCell id="wmvCU-1xR5RZZGSGPx9H-22" value="" style="rounded=0;whiteSpace=wrap;html=1;fontStyle=1;fontSize=15;" vertex="1" parent="wmvCU-1xR5RZZGSGPx9H-37">
          <mxGeometry width="120" height="60" as="geometry" />
        </mxCell>
        <mxCell id="wmvCU-1xR5RZZGSGPx9H-25" value="fpnew fma multi" style="text;html=1;align=center;verticalAlign=middle;whiteSpace=wrap;rounded=0;fontStyle=1;fontSize=15;" vertex="1" parent="wmvCU-1xR5RZZGSGPx9H-37">
          <mxGeometry x="10" y="15" width="100" height="30" as="geometry" />
        </mxCell>
      </root>
    </mxGraphModel>
  </diagram>
</mxfile>
